<?xml version="1.0" encoding="iso-8859-1"?>
<!-- Generator: Adobe Illustrator 19.0.0, SVG Export Plug-In . SVG Version: 6.00 Build 0)  -->
<svg version="1.1" id="Layer_1" xmlns="http://www.w3.org/2000/svg" xmlns:xlink="http://www.w3.org/1999/xlink" x="0px" y="0px"
	 viewBox="0 0 512.001 512.001" style="enable-background:new 0 0 512.001 512.001; fill: #FFFFFF" xml:space="preserve">
<g>
	<g>
		<g>
			<path d="M264.539,28.016c2.09,2.856,5.331,4.369,8.618,4.369c2.186,0,4.391-0.669,6.289-2.059
				c4.754-3.479,5.789-10.153,2.311-14.909l-0.48-0.642c-3.531-4.716-10.214-5.679-14.932-2.147
				c-4.716,3.53-5.677,10.216-2.147,14.932L264.539,28.016z"/>
			<path d="M280.204,52.48c12.43,22.438,23.464,50.546,32.8,83.54c1.329,4.698,5.606,7.766,10.259,7.766
				c0.96,0,1.938-0.131,2.909-0.406c5.669-1.603,8.965-7.499,7.36-13.169c-9.917-35.056-21.258-63.864-34.665-88.07
				c-2.854-5.153-9.346-7.019-14.5-4.162C279.212,40.834,277.35,47.325,280.204,52.48z"/>
			<path d="M276.392,376.049l-0.429-0.057c-5.832-0.774-11.203,3.329-11.978,9.17c-0.777,5.84,3.328,11.204,9.169,11.979
				l0.569,0.073c0.454,0.058,0.905,0.085,1.35,0.085c5.296,0,9.89-3.94,10.569-9.333
				C286.378,382.122,282.238,376.786,276.392,376.049z"/>
			<path d="M153.817,58.031c-5.878,0-10.669,4.792-10.669,10.668s4.792,10.668,10.669,10.668c5.877,0,10.665-4.792,10.665-10.668
				C164.482,62.823,159.692,58.031,153.817,58.031z"/>
			<path d="M463.298,296.476c0-29.408-23.927-53.332-53.334-53.332s-53.332,23.925-53.332,53.332c0,1.791,0.087,3.569,0.262,5.333
				h-33.058C302.208,160.718,272.007,0,175.656,0c-4.432,0-9.007,0.358-13.6,1.065c-25.425,3.909-44.08,14.698-55.448,32.069
				c-6.872,10.501-10.796,22.842-11.946,37.621l-42.869,43.257c-2.87,2.897-3.838,7.178-2.493,11.028
				c1.345,3.85,4.768,6.597,8.819,7.075c28.145,3.326,44.034,4.569,59.403,5.771c3.297,0.257,6.644,0.518,10.133,0.803
				c-22.543,47.704-36.015,96.94-39.113,143.271c-3.408,50.959,5.909,97.137,26.957,133.962c0.083,0.154,0.166,0.305,0.256,0.453
				c0.778,1.354,1.569,2.697,2.379,4.025c3.562,5.834,7.679,11.824,12.433,17.812L99.54,464.706
				c-11.24,9.597-22.127,21.045-17.649,33.187c4.573,12.399,20.797,14.109,37.648,14.109h190.205c0.025,0,0.048-0.003,0.071-0.003
				c0.073,0,0.145,0.001,0.218,0.001c18.117,0,37.398-1.328,57.307-3.947c5.249-0.69,9.197-5.127,9.274-10.42
				c0.079-5.293-3.737-9.843-8.963-10.689c-0.938-0.151-9.454-2.656-19.552-43.344c-5.243-21.124-9.902-48.172-14.531-77.789h23.326
				c-0.175,1.762-0.262,3.54-0.262,5.331c0,29.406,23.925,53.331,53.332,53.331c29.408,0,53.334-23.925,53.334-53.331
				c0-14.147-5.617-27.497-15.249-37.333C457.681,323.972,463.298,310.622,463.298,296.476z M130.5,398.835
				c-34-66.295-26.891-162.783,19.279-256.912c16.476,7.709,17.144,36.319,16.724,79.811c-0.295,30.54-0.631,65.155,8.142,95.425
				c3.404,11.741,7.964,22.151,13.707,31.286C183.527,365.192,169.733,389.706,130.5,398.835z M119.539,490.666L119.539,490.666
				c-7.589,0-12.267-0.497-15.093-1.021c1.622-1.95,4.359-4.797,8.949-8.716l31.432-26.841
				c13.814,13.61,31.455,26.457,53.929,36.578H119.539z M341.825,489.324c-10.935,0.892-21.567,1.34-31.792,1.34
				c-76.629,0-134.449-25.12-168.018-72.772c36.061-10.379,53.496-32.528,61.883-50.461c10.155,9.566,22.476,16.924,37.073,22.166
				c1.192,0.428,2.409,0.631,3.606,0.631c4.375,0,8.476-2.712,10.04-7.065c1.991-5.545-0.89-11.654-6.435-13.645
				c-61.563-22.109-60.915-88.766-60.347-147.576c0.238-24.379,0.461-47.407-3.942-65.336c-5.585-22.74-18.552-35.454-38.542-37.787
				c-0.046-0.005-0.092-0.004-0.139-0.01c-0.034-0.003-0.067-0.013-0.102-0.016c-9.831-0.921-18.015-1.562-25.928-2.18
				c-11.108-0.868-21.785-1.704-36.711-3.251l30.173-30.448c1.871-1.888,2.971-4.409,3.082-7.065
				c1.298-31.206,17.512-48.771,49.572-53.7c3.523-0.542,7.007-0.816,10.358-0.816c36.414,0,65.175,32.74,87.927,100.093
				c20.807,61.594,32.787,141.125,43.358,211.293c1.222,8.107,2.407,15.919,3.569,23.465c0.037,0.398,0.099,0.787,0.18,1.171
				C320.693,422.226,328.891,466.264,341.825,489.324z M425.456,343.136c10.182,5.649,16.508,16.38,16.508,28.006
				c0,17.643-14.355,31.996-32,31.996c-17.645,0-31.998-14.354-31.998-31.996c0-4.155,0.781-8.189,2.322-11.993
				c1.332-3.288,0.943-7.023-1.04-9.966c-1.981-2.943-5.298-4.706-8.846-4.706h-40.109c-0.748-4.937-1.498-9.918-2.254-14.933
				c-0.321-2.125-0.642-4.259-0.964-6.399h43.327c3.548,0,6.864-1.763,8.846-4.705c1.983-2.943,2.373-6.678,1.042-9.966
				c-1.541-3.806-2.323-7.843-2.323-11.995c0-17.644,14.353-31.998,31.998-31.998c17.645,0,32,14.354,32,31.998
				c0,11.625-6.326,22.355-16.508,28.005c-3.39,1.881-5.492,5.451-5.492,9.327C419.965,337.685,422.066,341.257,425.456,343.136z"/>
			<path d="M409.966,285.81c-5.878,0-10.669,4.791-10.669,10.666c0,5.874,4.792,10.668,10.669,10.668
				c5.873,0,10.665-4.794,10.665-10.668C420.632,290.601,415.839,285.81,409.966,285.81z"/>
			<path d="M409.966,360.474c-5.878,0-10.669,4.794-10.669,10.668c0,5.874,4.792,10.666,10.669,10.666
				c5.873,0,10.665-4.792,10.665-10.666S415.839,360.474,409.966,360.474z"/>
		</g>
	</g>
</g>
<g>
</g>
<g>
</g>
<g>
</g>
<g>
</g>
<g>
</g>
<g>
</g>
<g>
</g>
<g>
</g>
<g>
</g>
<g>
</g>
<g>
</g>
<g>
</g>
<g>
</g>
<g>
</g>
<g>
</g>
</svg>
